<?xml version="1.0" encoding="UTF-8" standalone="no"?>
<!DOCTYPE svg PUBLIC "-//W3C//DTD SVG 1.1//EN" "http://www.w3.org/Graphics/SVG/1.1/DTD/svg11.dtd">
<svg width="100%" height="100%" viewBox="0 0 2048 2048" version="1.1" xmlns="http://www.w3.org/2000/svg" xmlns:xlink="http://www.w3.org/1999/xlink" xml:space="preserve" xmlns:serif="http://www.serif.com/" style="fill-rule:evenodd;clip-rule:evenodd;stroke-linecap:round;stroke-linejoin:round;stroke-miterlimit:1.5;">
    <path d="M1027.84,259.75C1085.53,275.161 1218.01,404.695 1264.69,509.5C1417.77,853.179 1159.32,1203.63 1159.32,1203.63C1159.32,1203.63 1062.39,1057.55 1050.44,973.542C1036.25,873.839 1077.08,692.66 1074.19,605.417C1072.41,551.884 1045.3,440.703 1033.06,450.083C1020.83,459.464 1004.25,592.898 1000.79,661.7C992.734,822.1 983.453,1224.06 998.193,1411.33C1008.15,1537.87 1067.8,1778.36 1137.41,1768.62C1181.66,1762.43 1260.16,1666.17 1260.16,1666.17C1260.16,1666.17 1209.56,1837.55 1146.19,1837.08C1024.56,1836.18 949.705,1487.08 925.832,1389.82C914.339,1343 879.423,1329.3 878.439,1297.28C877.399,1263.45 916.13,1213.95 918.778,1174.75C928.075,1037.13 933.674,605.603 931.286,475.444C930.729,445.08 874.333,398.028 877.53,376.003C880.727,353.977 928.197,355.619 949.274,339.318C974.326,319.943 991.174,249.953 1027.84,259.75ZM1113.43,422.262C1159.41,403.156 1263.32,575.962 1267.79,652.285C1278.01,826.744 1131.92,1016.88 1109.56,1006.53C1062.46,984.717 1113.19,809.539 1113.83,712.161C1114.47,615.708 1087.44,433.061 1113.43,422.262Z" style="stroke:black;stroke-width:1px;"/>
</svg>
