<?xml version="1.0" encoding="UTF-8" standalone="no"?>
<!DOCTYPE svg PUBLIC "-//W3C//DTD SVG 1.1//EN" "http://www.w3.org/Graphics/SVG/1.1/DTD/svg11.dtd">
<svg width="100%" height="100%" viewBox="0 0 2048 2048" version="1.1" xmlns="http://www.w3.org/2000/svg" xmlns:xlink="http://www.w3.org/1999/xlink" xml:space="preserve" xmlns:serif="http://www.serif.com/" style="fill-rule:evenodd;clip-rule:evenodd;stroke-linecap:round;stroke-linejoin:round;stroke-miterlimit:1.5;">
    <path d="M1141.58,505.181C1141.58,505.181 1099.3,852.336 1088.79,972.857C1067.52,1216.83 1157.29,1182.63 1154.69,1284.55C1152.09,1386.46 1073.22,1584.35 1073.22,1584.35C1073.22,1584.35 1083.37,1456.51 1078.61,1416.31C1075.45,1389.6 1051.26,1369.2 1044.66,1343.13C1023.49,1259.43 1043.55,924.008 1043.55,924.008C1043.55,924.008 942.115,1132.19 891.805,1310.03C838.277,1499.23 908.124,1530.14 922.61,1599.43C932.773,1648.03 897.632,1746.3 897.632,1746.3C897.632,1746.3 806.68,1584.9 797.829,1495.31C788.428,1400.13 843.212,1287.35 837.824,1179.82C832.325,1070.09 760.96,1016.47 764.836,836.905C767.668,705.706 813.103,387.042 813.103,387.042C813.103,387.042 892.523,503.438 932.527,550.741C969.165,594.064 1016.77,679.789 1053.13,670.859C1089.48,661.929 1141.58,505.181 1141.58,505.181ZM947.007,637.621C974.963,652.829 1044.6,761.966 1047.9,818.855C1051.21,875.743 988.521,912.562 964.487,964.259C941.606,1013.48 903.698,1129.04 903.698,1129.04C903.698,1129.04 876.563,1055.34 864.372,1016.19C851.858,976.005 826.181,931.048 828.617,887.936C831.728,832.888 864.172,723.623 883.904,681.903C894.891,658.674 924.434,625.341 947.007,637.621Z" style="stroke:black;stroke-width:1px;"/>
</svg>
