<?xml version="1.0" encoding="UTF-8" standalone="no"?>
<!DOCTYPE svg PUBLIC "-//W3C//DTD SVG 1.1//EN" "http://www.w3.org/Graphics/SVG/1.1/DTD/svg11.dtd">
<svg width="100%" height="100%" viewBox="0 0 2048 2048" version="1.1" xmlns="http://www.w3.org/2000/svg" xmlns:xlink="http://www.w3.org/1999/xlink" xml:space="preserve" xmlns:serif="http://www.serif.com/" style="fill-rule:evenodd;clip-rule:evenodd;stroke-linecap:round;stroke-linejoin:round;stroke-miterlimit:1.5;">
    <path d="M1056.01,418.449C1056.01,418.449 1096.73,595.291 1123.71,679.206C1150.27,761.828 1204.7,834.833 1217.89,921.939C1239.86,1066.98 1132.42,1203.72 1090.86,1219.34C1049.3,1234.96 961.225,1019.56 961.225,1019.56C961.225,1019.56 946.048,1203.38 953.166,1299.11C963.825,1442.46 1064.3,1528.26 1076.59,1524.69C1106.86,1515.9 1132.06,1446.87 1117.5,1408.47C1098.16,1357.45 1093.79,1237.7 1093.79,1237.7C1093.79,1237.7 1185.43,1367.78 1201.47,1432.2C1229.54,1544.88 1162.66,1586.89 1154.17,1658.21C1150.55,1688.61 1165.75,1739.39 1165.09,1778.79C1164.13,1835.73 1148.36,1878.11 1148.36,1878.11C1148.36,1878.11 1142.24,1799.95 1132.86,1762.08C1121.24,1715.15 1105.2,1641.29 1072.7,1600.29C1040.2,1559.28 973.443,1502.48 937.866,1516.02C902.289,1529.56 878.33,1687.61 859.234,1681.54C840.138,1675.47 835.736,1529.63 823.29,1479.58C814.788,1445.39 785.771,1405.98 785.37,1370.75C783.984,1248.89 824.774,876.126 818.585,748.552C816.071,696.731 794.985,594.07 794.985,594.07C794.985,594.07 844.986,693.063 846.624,743.428C850.732,869.753 821.8,1237.58 819.633,1352.02C819.128,1378.7 845.42,1427.79 845.42,1427.79C845.42,1427.79 871.074,1386.93 874.159,1363.72C884.352,1287.05 901.177,1090.65 906.581,967.755C911.58,854.066 906.581,626.357 906.581,626.357C906.581,626.357 943.11,853.671 960.969,932.988C970.882,977.016 1055.68,1101.14 1066.52,1087.21C1161.19,965.346 1066.99,687.644 1058.62,611.405C1051.6,547.465 1056.01,418.449 1056.01,418.449Z" style="stroke:black;stroke-width:1px;"/>
</svg>
