<?xml version="1.0" encoding="UTF-8" standalone="no"?>
<!DOCTYPE svg PUBLIC "-//W3C//DTD SVG 1.1//EN" "http://www.w3.org/Graphics/SVG/1.1/DTD/svg11.dtd">
<svg width="100%" height="100%" viewBox="0 0 2048 2048" version="1.1" xmlns="http://www.w3.org/2000/svg" xmlns:xlink="http://www.w3.org/1999/xlink" xml:space="preserve" xmlns:serif="http://www.serif.com/" style="fill-rule:evenodd;clip-rule:evenodd;stroke-linecap:round;stroke-linejoin:round;stroke-miterlimit:1.5;">
    <path d="M1010.05,96.012C1010.05,96.012 1077,216.998 1105.74,266.858C1131.79,312.054 1209.84,367.298 1209.66,391.392C1209.42,422.454 1123.37,383.117 1099.22,410.471C1070.64,442.842 1037.31,518.733 1034.55,576.158C1025.1,772.774 1022.94,1378.53 1042.49,1590.17C1059.81,1777.62 1203.18,1797.37 1203.18,1797.37C1203.18,1797.37 1169.15,1852.4 1109.26,1828.58C1052.14,1805.85 964.279,1667.7 955.66,1589.38C932.985,1383.35 943.718,789.629 926.015,595.131C920.306,532.409 852.381,418.828 853.334,383.862C854.153,353.789 898.455,409.068 917.987,391.698C943.653,368.873 991.99,296.19 1007.33,246.909C1022.29,198.876 1010.05,96.012 1010.05,96.012Z" style="stroke:black;stroke-width:1px;"/>
</svg>
