<?xml version="1.0" encoding="UTF-8" standalone="no"?>
<!DOCTYPE svg PUBLIC "-//W3C//DTD SVG 1.1//EN" "http://www.w3.org/Graphics/SVG/1.1/DTD/svg11.dtd">
<svg width="100%" height="100%" viewBox="0 0 2048 2048" version="1.1" xmlns="http://www.w3.org/2000/svg" xmlns:xlink="http://www.w3.org/1999/xlink" xml:space="preserve" xmlns:serif="http://www.serif.com/" style="fill-rule:evenodd;clip-rule:evenodd;stroke-linecap:round;stroke-linejoin:round;stroke-miterlimit:1.5;">
    <path d="M1017.44,135.875C1059.79,135.066 1132.84,237.065 1151.09,305.482C1174.69,393.968 1178.81,563.233 1164.6,668.128C1151.87,762.077 1092.11,893.367 1065.84,934.852C1041.15,973.836 953.476,799.277 924.492,804.503C895.509,809.729 877.72,946.987 904.187,995.181C941.362,1062.88 1084.69,1071.85 1115.81,1135.86C1146.94,1199.87 1125.55,1409.08 1075.46,1368.45C1026.93,1329.07 797.23,1092.48 762.579,984.44C733.543,893.905 834.617,717.296 878.911,692.036C923.205,666.775 1005.67,854.945 1036.15,824.828C1072.67,788.757 1109.42,659.765 1113.53,586.833C1118.75,494.31 1068.24,384.136 1030.12,386.583C993.815,388.915 968.726,491.172 912.43,515.002C719.055,596.856 683.675,341.271 683.675,341.271C683.675,341.271 770.274,454.819 806.306,442.576C842.337,430.333 853.399,332.734 887.063,283.833C922.251,232.717 974.495,136.696 1017.44,135.875Z" style="stroke:black;stroke-width:1px;"/>
    <path d="M1006.02,1440.48C1025.29,1441.49 1086.34,1525.13 1053.89,1685.17C1039.58,1755.74 934.108,1865.61 934.108,1865.61C934.108,1865.61 977.259,1775.41 978.474,1730.68C979.688,1685.94 955.304,1649.24 952.824,1601.04C950.327,1552.52 984.248,1439.33 1006.02,1440.48Z" style="stroke:black;stroke-width:1px;"/>
</svg>
