<?xml version="1.0" encoding="UTF-8" standalone="no"?>
<!DOCTYPE svg PUBLIC "-//W3C//DTD SVG 1.1//EN" "http://www.w3.org/Graphics/SVG/1.1/DTD/svg11.dtd">
<svg width="100%" height="100%" viewBox="0 0 2048 2048" version="1.1" xmlns="http://www.w3.org/2000/svg" xmlns:xlink="http://www.w3.org/1999/xlink" xml:space="preserve" xmlns:serif="http://www.serif.com/" style="fill-rule:evenodd;clip-rule:evenodd;stroke-linecap:round;stroke-linejoin:round;stroke-miterlimit:1.5;">
    <path d="M1049.16,97.417C1049.16,97.417 1223.46,217.124 1262.75,354.5C1297,474.263 1299.07,730.045 1279.97,805.73C1274.61,826.988 1231.04,777.882 1213.16,789.875C1195.28,801.868 1168.46,847.572 1168.62,881.542C1168.84,926.125 1233.37,1030.97 1214.47,1057.38C1204.99,1070.61 1151.55,962.681 1125.38,969.125C1122.13,969.924 1116.23,987.693 1105.5,989.852C1096.79,991.606 1083.05,975.846 1079.66,990.271C1059.39,1076.8 1067.93,1178.48 1060.38,1272.46C1057.48,1308.45 1040.06,1359.52 1035.25,1412.99C1025.87,1517.18 1046.53,1564.86 1028.5,1626.92C1011,1687.13 961.084,1745.45 926.105,1802.44C891.563,1858.71 816.513,1982.52 799.9,1968.85C761.243,1937.05 811.774,1807.1 806.113,1730.53C797.801,1618.1 762.545,1422.66 750.031,1294.29C739.213,1183.32 750.59,1022.95 721.176,956.05C664.38,826.876 560.969,492.583 560.969,492.583C560.969,492.583 718.233,780.838 739.321,854.158C757.509,917.392 842.2,662.013 910.446,670.163C965.448,676.732 1070.59,881.042 1070.59,881.042C1070.59,881.042 1079.71,825.402 1075.53,799.467C1069,759.037 1031.44,638.458 1031.44,638.458C1031.44,638.458 1116.61,713.503 1135.56,740.735C1154.85,768.446 1214.13,641.034 1225.69,581C1277.33,312.635 1049.16,97.417 1049.16,97.417ZM949.645,858.724C1045.85,866.578 1001.06,1125.94 999.233,1266.6C997.513,1398.91 989.478,1585.96 955.648,1661.14C937.853,1700.69 876.715,1774.39 862.271,1738.84C839.201,1682.07 802.85,1510.43 814.567,1320.75C823.926,1169.25 867.595,852.026 949.645,858.724Z" style="stroke:black;stroke-width:1px;"/>
    <path d="M908.05,1149.72C918.665,1150.51 923.383,1256.72 921.628,1310C919.748,1367.08 899.836,1490.3 889.247,1492.82C874.923,1496.23 871.711,1393.11 874.355,1344.77C877.671,1284.13 897.195,1148.91 908.05,1149.72Z" style="stroke:black;stroke-width:1px;"/>
</svg>
