<?xml version="1.0" encoding="UTF-8" standalone="no"?>
<!DOCTYPE svg PUBLIC "-//W3C//DTD SVG 1.1//EN" "http://www.w3.org/Graphics/SVG/1.1/DTD/svg11.dtd">
<svg width="100%" height="100%" viewBox="0 0 2048 2048" version="1.1" xmlns="http://www.w3.org/2000/svg" xmlns:xlink="http://www.w3.org/1999/xlink" xml:space="preserve" xmlns:serif="http://www.serif.com/" style="fill-rule:evenodd;clip-rule:evenodd;stroke-linecap:round;stroke-linejoin:round;stroke-miterlimit:1.5;">
    <path d="M1019.14,1638.85C1019.14,1638.85 1114.82,1726.38 1132.93,1787.22C1152.86,1854.18 1124.3,2046.79 1088.62,2045.7C1070.17,2045.13 1051.62,1999.34 1051.39,1960.04C1051.13,1915.07 1062.17,1905.89 1059.45,1878.82C1054.08,1825.29 1019.14,1638.85 1019.14,1638.85Z" style="stroke:black;stroke-width:1px;"/>
    <path d="M946.089,17.152C1086.16,-49.356 1181.62,200.374 1215.78,347.208C1237.33,439.817 1209.85,561.5 1224.38,647.083C1237.07,721.882 1328.9,838.368 1302.91,860.708C1295.05,867.461 1210.13,723.688 1181.62,692.208C1169.6,678.925 1135.13,689.456 1131.88,671.833C1127.19,646.431 1154.84,581.891 1156.6,537.325C1160.4,441.169 1188.37,293.73 1028.66,152.958C999.701,127.438 971.989,305.989 975.031,393.583C984.669,671.045 1173.97,877.396 1207.97,1045.5C1231.62,1162.43 1223.87,1281.66 1209.94,1368.17C1206.03,1392.47 1171.57,1422.11 1154.14,1459.58C1131.13,1509.03 1124.41,1564.54 1124.41,1564.54C1124.41,1564.54 1087.31,1468.64 1064.85,1424.2C1042.75,1380.46 989.656,1297.88 989.656,1297.88C989.656,1297.88 952.454,1391.59 939.16,1438.41C922.118,1498.43 887.406,1658 887.406,1658C887.406,1658 851.188,1447.39 860.563,1366.88C868.627,1297.62 923.146,1232.74 943.656,1174.92C961.493,1124.63 983.625,1019.92 983.625,1019.92C983.625,1019.92 1006.97,1101.04 1011.71,1137.06C1016.04,1169.91 995.998,1211.56 1003.7,1241.92C1011.41,1272.28 1056.2,1339.16 1074.2,1319.19C1095.07,1296.05 1139,1225.66 1149.59,1173.12C1160.18,1120.59 1149.94,1054.95 1130.79,1001.78C1093.46,898.096 954.214,713.624 925.594,551.042C896.648,386.61 880.182,48.446 946.089,17.152Z" style="stroke:black;stroke-width:1px;"/>
</svg>
