<?xml version="1.0" encoding="UTF-8" standalone="no"?>
<!DOCTYPE svg PUBLIC "-//W3C//DTD SVG 1.1//EN" "http://www.w3.org/Graphics/SVG/1.1/DTD/svg11.dtd">
<svg width="100%" height="100%" viewBox="0 0 2048 2048" version="1.1" xmlns="http://www.w3.org/2000/svg" xmlns:xlink="http://www.w3.org/1999/xlink" xml:space="preserve" xmlns:serif="http://www.serif.com/" style="fill-rule:evenodd;clip-rule:evenodd;stroke-linecap:round;stroke-linejoin:round;stroke-miterlimit:1.5;">
    <path d="M783.005,73.368C783.005,73.368 925.41,122.734 955.337,165.371C983.984,206.184 987.159,307.292 970.221,320.776C923.665,357.839 919.22,249.695 894.099,220.435C859.931,180.636 783.005,73.368 783.005,73.368Z" style="stroke:black;stroke-width:1px;"/>
    <path d="M1013.61,479.922C1085.49,463.764 1207.66,673.95 1250.33,799.662C1283.76,898.164 1255.17,983.84 1259.54,1090.37C1263.17,1178.73 1285.13,1274.88 1267.4,1356.16C1252.72,1423.44 1182.51,1511.81 1147.06,1611.46C1077.87,1805.97 982.405,1996.28 982.405,1996.28C982.405,1996.28 1035.91,1816.62 1047.98,1758.06C1055.96,1719.38 1046.01,1681.66 1054.85,1644.92C1068.52,1588.13 1130.97,1451.05 1130,1417.32C1129.05,1384.14 890.053,1212.48 859.071,1025.56C814.089,754.165 939.769,496.523 1013.61,479.922ZM1060.94,636.483C1100.3,630.73 1169.73,743.784 1175.89,944.582C1179.33,1056.8 1178.31,1302.22 1140.14,1316.82C1101.98,1331.43 960.073,1145.62 946.873,1032.23C933.673,918.843 1020.5,642.395 1060.94,636.483Z" style="stroke:black;stroke-width:1px;"/>
</svg>
