<?xml version="1.0" encoding="UTF-8" standalone="no"?>
<!DOCTYPE svg PUBLIC "-//W3C//DTD SVG 1.1//EN" "http://www.w3.org/Graphics/SVG/1.1/DTD/svg11.dtd">
<svg width="100%" height="100%" viewBox="0 0 2048 2048" version="1.1" xmlns="http://www.w3.org/2000/svg" xmlns:xlink="http://www.w3.org/1999/xlink" xml:space="preserve" xmlns:serif="http://www.serif.com/" style="fill-rule:evenodd;clip-rule:evenodd;stroke-linecap:round;stroke-linejoin:round;stroke-miterlimit:1.5;">
    <path d="M1305.89,11.552C1305.89,11.552 1349.52,209.184 1373.32,290.267C1414.77,431.511 1487.76,439.311 1526.55,468.03C1541.2,478.873 1543.14,501.536 1554.94,515.82C1566.74,530.103 1600.42,547.362 1596.8,559.001C1592.7,572.124 1524.93,545.482 1504.49,566.522C1459.91,612.422 1423.87,704.912 1406.87,784.206C1336.29,1113.37 1411.78,1117.57 1434.89,1215.94C1448.81,1275.22 1456.3,1357.53 1443.64,1398.39C1416.24,1486.81 1376.86,1441.52 1363.95,1462.66C1353.08,1480.47 1356.81,1506.58 1366.18,1525.23C1381.66,1556.03 1444.79,1585.41 1456.8,1647.45C1491.8,1828.3 1405.19,1848.57 1388,1915.2C1375.72,1962.78 1353.65,2047.21 1353.65,2047.21C1353.65,2047.21 1298.16,1953.34 1276.36,1904C1252.42,1849.84 1210.03,1722.27 1210.03,1722.27C1210.03,1722.27 1276.27,1820.15 1295.54,1818.63C1321.17,1816.61 1353.6,1761.89 1364.75,1724.61C1408.77,1577.43 1325.92,1499.51 1267.96,1435.1C1186.79,1344.89 1086.79,1193.61 1046.19,1069.86C1006.93,950.175 1049.66,774.355 1024.36,692.607C1007.37,637.709 917.559,584.094 881.669,582.925C845.779,581.755 798.316,645.057 809.017,685.592C834.132,780.718 818.574,976.953 830.507,1088.29C839.759,1174.62 947.237,1329.39 947.237,1329.39C947.237,1329.39 854.243,1277.4 825.992,1288.99C797.741,1300.58 808.739,1384.88 777.729,1398.93C728.045,1421.44 646.223,1236.05 606.019,1240.77C569.857,1245.01 559.714,1333.39 566.399,1367.86C576.285,1418.83 639.097,1493.14 681.935,1549.75C727.843,1610.41 830.129,1757.2 830.129,1757.2C830.129,1757.2 687.191,1622.17 626.08,1546.6C565.034,1471.11 477.09,1372.25 470.662,1309.93C465.609,1260.96 515.996,1222.72 515.699,1177.26C515.336,1121.87 478.087,1045.3 468.487,977.574C454.326,877.689 441.857,694.489 430.734,577.95C417.067,434.753 336.318,287.71 336.318,287.71C336.318,287.71 514.463,462.138 551.831,546.409C570.266,587.984 489.451,666.676 512.608,824.059C526.398,917.779 605.3,1128.27 676.849,1106.58C708.501,1096.98 749.217,988.718 742.486,924.578C733.693,840.785 705.358,711.12 711.919,625.399C717.675,550.21 755.052,414.398 781.855,410.252C829.471,402.887 950.883,600.701 998.984,591.199C1037.03,583.685 1074.28,498.179 1069.97,455.308C1065,405.858 1024.57,292.753 1024.57,292.753C1024.57,292.753 1122.49,434.818 1174.21,492.979C1222.97,547.814 1334.87,641.72 1334.87,641.72C1334.87,641.72 1360.95,614.015 1326.28,413.324C1310.57,322.379 1288.61,176.227 1285.21,109.265C1283.78,81.012 1305.89,11.552 1305.89,11.552ZM1202.17,590.346C1202.17,590.346 1318.7,678.497 1331.08,744.264C1345.51,820.93 1292.51,973.827 1285.09,1048.09C1280.39,1095.1 1287,1149.97 1275.28,1184.14C1265.37,1213.06 1236.62,1269.9 1214.8,1253.1C1134.6,1191.3 1120.43,1035.3 1117.71,956.862C1115.36,889.344 1156.91,844.255 1157.15,785.71C1157.68,657.553 1202.17,590.346 1202.17,590.346Z" style="stroke:black;stroke-width:1px;"/>
</svg>
