<?xml version="1.0" encoding="UTF-8" standalone="no"?>
<!DOCTYPE svg PUBLIC "-//W3C//DTD SVG 1.1//EN" "http://www.w3.org/Graphics/SVG/1.1/DTD/svg11.dtd">
<svg width="100%" height="100%" viewBox="0 0 2048 2048" version="1.1" xmlns="http://www.w3.org/2000/svg" xmlns:xlink="http://www.w3.org/1999/xlink" xml:space="preserve" xmlns:serif="http://www.serif.com/" style="fill-rule:evenodd;clip-rule:evenodd;stroke-linecap:round;stroke-linejoin:round;stroke-miterlimit:1.5;">
    <path d="M913.638,192.906C1136.67,180.905 1303.26,543.24 1310.52,698.506C1317.2,841.651 1193.58,992.445 1172.7,1121.47C1153.04,1242.91 1170.39,1366.65 1189.05,1450.21C1202.15,1508.86 1306.16,1572.21 1307.69,1602.82C1310.12,1651.31 1222.44,1694.68 1209.79,1740.74C1197.42,1785.8 1231.79,1879.18 1231.79,1879.18C1231.79,1879.18 1184.4,1806.54 1152.48,1777.93C1071.78,1705.59 882.247,1629.96 815.659,1412.32C769.696,1262.09 853.216,1039.07 858.327,949.909C859.73,925.437 846.326,877.358 846.326,877.358C846.326,877.358 915.14,947.066 933.876,981.595C951.437,1013.96 950.913,1048.09 951.268,1082.08C951.86,1138.7 914.453,1148.09 931.051,1324.7C935.138,1368.18 926.589,1482.26 948.529,1537.55C966.926,1583.91 1109.81,1683.11 1109.81,1683.11C1109.81,1683.11 1144.43,1613.97 1143.59,1576.79C1142.41,1524.24 1107.37,1438.62 1102.72,1367.79C1096.61,1274.7 1121.02,1107.26 1106.95,1018.25C1096.29,950.847 1053.15,892.392 1018.28,833.737C983.021,774.426 895.4,662.381 895.4,662.381C895.4,662.381 1001.07,723.382 1038.74,762.552C1075.28,800.555 1100.49,893.397 1128.12,893.435C1156.21,893.473 1184.37,829.43 1202.02,791.481C1219.67,753.533 1232.65,708.968 1234.01,665.741C1240.44,461.903 1027.88,311.37 968.595,294.198C900.261,274.406 786.317,339.945 786.317,339.945C786.317,339.945 807.451,198.62 913.638,192.906Z" style="stroke:black;stroke-width:1px;"/>
    <path d="M1009.82,1250.62C1024.74,1246.74 1061.98,1304.51 1068.61,1339.37C1076.75,1382.23 1066.38,1490.68 1058.67,1507.72C1051.92,1522.67 1000.77,1471.65 1003.07,1412.78C1003.72,1396.11 981.506,1379.16 979.14,1362.64C974.796,1332.31 994.912,1254.5 1009.82,1250.62Z" style="stroke:black;stroke-width:1px;"/>
</svg>
