<?xml version="1.0" encoding="UTF-8" standalone="no"?>
<!DOCTYPE svg PUBLIC "-//W3C//DTD SVG 1.1//EN" "http://www.w3.org/Graphics/SVG/1.1/DTD/svg11.dtd">
<svg width="100%" height="100%" viewBox="0 0 2048 2048" version="1.1" xmlns="http://www.w3.org/2000/svg" xmlns:xlink="http://www.w3.org/1999/xlink" xml:space="preserve" xmlns:serif="http://www.serif.com/" style="fill-rule:evenodd;clip-rule:evenodd;stroke-linecap:round;stroke-linejoin:round;stroke-miterlimit:1.5;">
    <path d="M1085.06,46.125C1191.65,48.461 1455.3,477.981 1474.09,696.75C1500.32,1002.04 1395.43,1125.34 1390.98,1251.58C1388.27,1328.67 1396.92,1411.59 1451.39,1452.28C1492.05,1482.66 1522.29,1585.25 1508.22,1596.29C1493.07,1608.18 1424.03,1550.48 1395.88,1553.62C1368.18,1556.72 1363.3,1614.05 1339.31,1615.17C1257.4,1618.97 1111.78,1267.37 1039.81,1116.45C942.034,911.407 770.777,782.139 770.777,782.139C770.777,782.139 782.129,1015.55 795.875,1111.75C808.867,1202.68 798.922,1330.56 806.781,1387.08C810.151,1411.32 841.705,1416.68 840.846,1446.02C840.051,1473.2 796.769,1515.42 771.169,1574.2C744.386,1635.69 749.273,1707.29 729.651,1715.86C711.429,1723.82 654.645,1624.98 652,1580.17C649.355,1535.36 713.63,1450.87 709.808,1383.14C699.537,1201.17 623.6,493.248 623.6,493.248C623.6,493.248 774.867,633.008 842.351,705.592C908.309,776.536 1028.5,928.75 1028.5,928.75C1028.5,928.75 1094.96,873.707 1104.75,834.5C1116.13,788.917 1096.78,655.25 1096.78,655.25C1096.78,655.25 1224.1,787.399 1263.48,832.153C1288.82,860.946 1333.09,923.775 1333.09,923.775C1333.09,923.775 1368.94,824.91 1364.69,774.417C1356.26,674.444 1320.24,411.124 1272.5,320.792C1224.73,230.406 1175.8,129.373 1079.2,128.628C1027.75,128.23 953.604,207.112 946.094,257.333C940.891,292.124 974.445,352.097 996.969,349.792C1029.87,346.424 1083.19,228.957 1083.19,228.957C1083.19,228.957 1098.77,320.8 1108.44,349.314C1115.83,371.109 1140.86,380.371 1143.09,406.359C1145.23,431.256 1107.91,495.365 1088.81,497.958C1069.71,500.551 1052.32,440.192 1028.5,421.917C1016.89,413.013 990.876,454.68 972.419,438.806C937.49,408.766 915.202,363.792 908.688,319.042C896.764,237.139 976.772,43.751 1085.06,46.125ZM1348.91,1028.1C1348.91,1028.1 1317.01,1152.24 1314.61,1212.2C1312.26,1271.08 1334.56,1387.85 1334.56,1387.85L1266.8,1405.13C1266.8,1405.13 1169.18,1253.23 1152.41,1166.68C1134.61,1074.82 1160.01,853.964 1160.01,853.964C1160.01,853.964 1231.1,927.145 1262.58,956.168C1290.12,981.556 1348.91,1028.1 1348.91,1028.1Z" style="stroke:black;stroke-width:1px;"/>
    <path d="M937.89,1365.4L1022.13,1447.02C1022.13,1447.02 1035.22,1367.71 1052.95,1368.11C1070.68,1368.51 1120.87,1413.21 1128.49,1449.41C1136.97,1489.7 1114.38,1613.16 1093.24,1614.85C1071.5,1616.59 1071.61,1582.99 1049.7,1560.85C1026.56,1537.45 1008.54,1522.19 990.747,1507.22C927.344,1453.87 937.89,1365.4 937.89,1365.4Z" style="stroke:black;stroke-width:1px;"/>
    <path d="M981.26,1669.32C981.26,1669.32 1067.88,1789.2 1095.08,1793.96C1122.29,1798.72 1117.24,1705.33 1141.26,1698.7C1152.72,1695.54 1161.74,1739.6 1182.52,1781.02C1201.2,1818.23 1221.09,1835.81 1223.26,1864.95C1226.24,1904.9 1226.77,2016.31 1200.38,2020.69C1173.99,2025.08 1123.03,1920.87 1079.78,1874.84C998.678,1788.52 981.26,1669.32 981.26,1669.32Z" style="stroke:black;stroke-width:1px;"/>
</svg>
