<?xml version="1.0" encoding="UTF-8" standalone="no"?>
<!DOCTYPE svg PUBLIC "-//W3C//DTD SVG 1.1//EN" "http://www.w3.org/Graphics/SVG/1.1/DTD/svg11.dtd">
<svg width="100%" height="100%" viewBox="0 0 2048 2048" version="1.1" xmlns="http://www.w3.org/2000/svg" xmlns:xlink="http://www.w3.org/1999/xlink" xml:space="preserve" xmlns:serif="http://www.serif.com/" style="fill-rule:evenodd;clip-rule:evenodd;stroke-linecap:round;stroke-linejoin:round;stroke-miterlimit:1.5;">
    <path d="M926.426,64.848C926.426,64.848 966.049,243.839 1003.43,323.355C1044.61,410.946 1174.7,619.498 1174.7,619.498C1174.7,619.498 1069.29,512.22 1025.64,512.94C958.993,514.039 876.171,795.35 869.589,914.585C860.375,1081.51 985.371,1233.42 1015.12,1229.37C1054.66,1223.98 1110.01,1022.85 1108.86,930.801C1107.89,853.706 1063.78,679.161 1063.78,679.161C1063.78,679.161 1162.41,883.489 1176.19,988.494C1189.89,1092.82 1172.07,1309.19 1076.75,1319.56C930.61,1335.44 842.582,1130.91 810.233,1001.71C772.548,851.204 830.513,537.108 850.64,416.533C859.417,363.951 922.578,304.021 926.462,250.853C930.902,190.064 926.426,64.848 926.426,64.848Z" style="stroke:black;stroke-width:1px;"/>
    <path d="M978.704,1419.38C1061.13,1414.45 1087.83,1617.27 1086.88,1720.11C1085.93,1822.95 1001.09,2041.57 965.55,2038.46C934.3,2035.72 879.245,1829.2 878.223,1725.95C876.608,1562.85 942.322,1421.55 978.704,1419.38ZM994.58,1495.63C1020.12,1499.01 1048.53,1576.46 1050.34,1623.57C1052.87,1689.19 1003.31,1890.52 971.26,1889.01C949.778,1888 928.589,1741.65 932.476,1676.09C936.24,1612.59 973.259,1492.81 994.58,1495.63Z" style="stroke:black;stroke-width:1px;"/>
</svg>
